<svg xmlns="http://www.w3.org/2000/svg" width="1440" height="570" preserveAspectRatio="none">
  <defs>
    <linearGradient id="a" x1="0%" x2="98.301977%" y1="0%" y2="0%">
      <stop stop-color="#F17F4F" offset="0%"/>
      <stop stop-color="#F7A572" offset="100%"/>
    </linearGradient>
    <linearGradient id="b" x1="0%" x2="99.8923788%" y1="0%" y2="0%">
      <stop stop-color="#B15B78" offset="0%"/>
      <stop stop-color="#CE8296" offset="100%"/>
    </linearGradient>
    <linearGradient id="c" x1="0%" x2="98.4893176%" y1="0%" y2="0%">
      <stop stop-color="#7839A1" offset="0%"/>
      <stop stop-color="#9252B3" offset="100%"/>
    </linearGradient>
  </defs>
  <g fill="none" fill-rule="evenodd">
    <path fill="url(#a)" d="M1439.99999,358.827522 C993.764449,339.44511 680.883509,550.625142 296.963413,569.43031 C288.111328,569.754883 257.704172,569.114572 247.233041,568.260287 C243.812204,568.166584 240.1132,567.525018 236.901007,567.355375 C229.815939,566.60745 223.026445,565.914222 216.063092,564.959719 C211.903342,564.242435 207.591458,563.539954 203.310005,562.704689 C197.129073,561.303131 190.895973,560.082837 184.654189,558.622289 C180.116292,557.515239 175.374106,556.279698 170.940531,555.134677 C164.898707,553.357934 158.982939,551.494741 152.93243,549.477743 C148.125051,548.063084 143.561088,546.559829 138.849346,544.866945 C132.907514,542.607546 126.813546,540.36295 120.993429,537.896973 C116.116525,535.858511 111.491712,534.296265 106.823452,532.181862 C100.48175,529.256618 94.2008984,526.390366 87.8765889,523.296515 C83.5951849,521.163016 79.2398787,519.259261 74.8237333,516.971958 C64.6353071,511.592728 54.338217,506.131341 44.1237378,500.031346 C29.4322619,491.585059 14.7625577,482.116615 0.171110137,472.213996 C0.114525061,472.163983 0.0582138009,472.115247 0,472.066225 L6.81399381e-15,0 L1440,0 L1440,358.827523 L1439.99999,358.827522 Z"/>
    <path fill="url(#b)" d="M1440,358.622531 C1116.37332,206.986308 889.894698,339.530155 633.542346,307.164503 C630.437516,306.406304 627.195291,305.693736 623.392508,305.101414 C617.825709,304.285027 612.194836,303.223087 606.575018,301.752514 C604.721267,301.373038 602.768649,300.668525 601.035802,300.26773 C597.249585,299.180187 593.619063,298.150809 589.918957,296.962465 C587.72272,296.172483 585.442219,295.375954 583.191039,294.510043 C579.959908,293.153389 576.682966,291.890429 573.424364,290.495811 C571.059638,289.457281 568.596007,288.32917 566.291733,287.279981 C563.172374,285.732384 560.129958,284.149816 557.028938,282.470559 C554.547006,281.238653 552.206128,279.981876 549.802987,278.607651 C546.784419,276.806834 543.681588,274.999471 540.749132,273.097853 C538.289236,271.519592 535.920887,270.224849 533.581896,268.62527 C530.409518,266.423487 527.264611,264.259669 524.117894,261.967745 C521.99139,260.394911 519.802586,258.940084 517.617479,257.270562 C512.586066,253.363166 507.503371,249.4006 502.526975,245.098225 C495.338002,239.088364 488.259026,232.523998 481.264352,225.730725 C480.890733,225.261496 480.522586,224.941132 477.092097,221.629028 C471.113977,215.534086 464.928915,209.090356 456.883118,200.106544 C452.201775,195.002992 447.602921,189.542426 442.377696,183.357537 C438.1708,178.23454 433.903488,172.886749 429.156371,166.703174 C424.53012,160.733735 419.883756,154.532394 415.257543,148.327501 C384.2508,105.477043 354.82991,55.7681176 326.832536,9.50967368e-08 L1440,0 L1440,358.622531 L1440,358.622531 Z"/>
    <path fill="url(#c)" d="M1440,358.563528 C1313.26355,200.101691 1156.95424,195.958796 1032.92222,101.827769 C1031.45184,100.421507 1029.89119,98.9966702 1027.98322,97.4597009 C1025.17405,95.2377207 1022.40772,92.8599698 1019.77755,90.260456 C1018.87635,89.4612028 1018.0241,88.4512854 1017.19634,87.6787626 C1015.45513,85.874047 1013.78124,84.1509553 1012.11959,82.3180765 C1011.16024,81.1834956 1010.15651,80.0184848 1009.19104,78.8245552 C1007.84151,77.0481593 1006.4369,75.3088367 1005.08431,73.5027665 C1004.11118,72.17753 1003.11204,70.771425 1002.17563,69.4595536 C1000.9485,67.6134661 999.774917,65.7725892 998.599803,63.859754 C997.623607,62.3906008 996.733092,60.9526331 995.845634,59.4300975 C994.75467,57.4764894 993.619334,55.4924514 992.607929,53.5106801 C991.754126,51.8575931 990.86055,50.389951 990.080188,48.7635944 C989.032053,46.5399733 987.98698,44.3460267 986.981684,42.0808772 C986.309955,40.5369001 985.566318,39.0381508 984.893057,37.4222154 C983.362914,33.6665495 981.82206,29.8641447 980.44797,25.9082358 C978.397558,20.3067171 976.584285,14.4345082 974.890349,8.46293327 C974.833725,8.08532156 974.732734,7.79152223 973.895714,4.87361578 C973.487329,3.28830173 973.078665,1.67956432 972.663867,-2.27373675e-13 L1440,-2.24043006e-13 L1440,358.563528 L1440,358.563528 Z"/>
  </g>
</svg>
