<svg xmlns="http://www.w3.org/2000/svg" width="62" height="71" xmlns:xlink="http://www.w3.org/1999/xlink">
  <defs>
    <linearGradient id="b" x1="-57.0468811%" x2="0%" y1="2683.30001%" y2="-948.578404%">
      <stop stop-color="#480C80" offset="0%"/>
      <stop stop-color="#C380D4" offset="100%"/>
    </linearGradient>
    <path id="a" d="M2.44974747,0.121320344 L2.44974747,0.121320344 L2.44974747,0.121320344 C3.27817459,0.121320344 3.94974747,0.792893219 3.94974747,1.62132034 L3.94974747,4 L0.949747468,4 L0.949747468,1.62132034 L0.949747468,1.62132034 C0.949747468,0.792893219 1.62132034,0.121320344 2.44974747,0.121320344 Z"/>
    <linearGradient id="c" x1="-34.4128226%" x2="133.800471%" y1="129.73608%" y2="-37.114265%">
      <stop stop-color="#480C80" offset="0%"/>
      <stop stop-color="#C380D4" offset="100%"/>
    </linearGradient>
    <linearGradient id="d" x1="0%" x2="72.7013221%" y1="11.0942627%" y2="100%">
      <stop stop-color="#E7BDFD" offset="0%"/>
      <stop stop-color="#E5B5FD" offset="100%"/>
    </linearGradient>
    <linearGradient id="e" x1="-49.6796875%" x2="149.638672%" y1="145.064453%" y2="-54.0917969%">
      <stop stop-color="#480C80" offset="0%"/>
      <stop stop-color="#C380D4" offset="100%"/>
    </linearGradient>
    <linearGradient id="f" x1="-261.932373%" x2="364.349365%" y1="350.183105%" y2="-275.543213%">
      <stop stop-color="#480C80" offset="0%"/>
      <stop stop-color="#C380D4" offset="100%"/>
    </linearGradient>
    <linearGradient id="h" x1="-361.458333%" x2="470.060221%" y1="2849.38151%" y2="-471.842448%">
      <stop stop-color="#480C80" offset="0%"/>
      <stop stop-color="#C380D4" offset="100%"/>
    </linearGradient>
    <path id="g" d="M24 0H36V3H24z"/>
    <linearGradient id="i" x1="-173.847747%" x2="199.166015%" y1="329.265246%" y2="-314.226942%">
      <stop stop-color="#480C80" offset="0%"/>
      <stop stop-color="#C380D4" offset="100%"/>
    </linearGradient>
    <linearGradient id="j" x1="-2458.00781%" x2="2554.98047%" y1="3998.33984%" y2="-922.265625%">
      <stop stop-color="#480C80" offset="0%"/>
      <stop stop-color="#C380D4" offset="100%"/>
    </linearGradient>
  </defs>
  <g fill="none" fill-rule="evenodd" transform="translate(1 2)">
    <g transform="rotate(45 12.793 71.3)">
      <use fill="#CB8FEA" fill-opacity=".66" xlink:href="#a"/>
      <path stroke="url(#b)" stroke-width="2" d="M2.44974747,-0.878679656 C3.83045934,-0.878679656 4.94974747,0.240608469 4.94974747,1.62132034 L4.94974747,5 L-0.0502525317,5 L-0.0502525317,1.62132034 C-0.0502525317,0.240608469 1.06903559,-0.878679656 2.44974747,-0.878679656 Z"/>
    </g>
    <circle cx="29.9500008" cy="37.9500008" r="29.9500008" stroke="url(#c)" stroke-width="2"/>
    <path fill="url(#d)" d="M42.3274592,59.7543397 C49.8950243,55.456815 55,47.324573 55,38 C55,24.1928813 43.8071187,13 30,13 L30,23 C38.2842712,23 45,29.7157288 45,38 C45,43.5947438 41.9370146,48.474089 37.3964755,51.0526038 L42.3274592,59.7543397 Z"/>
    <path fill="url(#e)" d="M29.9614727,13 L29.9614727,13 C30.4731907,12.9999783 30.8899353,13.4111766 30.8967693,13.922849 L30.948657,17.8077887 L30.948657,17.8077887 C30.9556544,18.331695 30.5366169,18.7620774 30.0127106,18.7690748 C30.008474,18.7691314 30.004237,18.7691596 30,18.7691594 C29.4689728,18.7691366 29.0385023,18.3386476 29.0385023,17.8076204 L29.0385023,13.9230095 C29.0385023,13.4132607 29.4517239,13.0000216 29.9614727,13 L29.9614727,13 Z M42.4666343,16.3301012 C42.909806,16.5859415 43.0651183,17.1504219 42.8152005,17.5969602 L40.9176667,20.9873605 C40.6617735,21.4445754 40.0836851,21.6077788 39.6264703,21.3518855 C39.622773,21.3498162 39.6190896,21.3477222 39.6154203,21.3456035 C39.1555486,21.0800701 38.9979947,20.4920205 39.2635083,20.0321374 L41.2058138,16.6679657 C41.4606882,16.2265103 42.0251681,16.0752455 42.4666343,16.3301012 Z M51.6313714,25.4666343 C51.8872492,25.9097843 51.7395134,26.4762949 51.2998091,26.7380495 L47.9612965,28.7254554 L47.9612965,28.7254554 C47.511079,28.9934684 46.9288381,28.8457626 46.6608251,28.3955451 C46.6586577,28.3919043 46.6565148,28.3882491 46.6543965,28.3845797 C46.3889026,27.9246852 46.5464818,27.3366423 47.0063649,27.0711287 L50.3705365,25.1288233 L50.3705365,25.1288233 C50.8119919,24.8739489 51.3764783,25.0251897 51.6313714,25.4666343 Z M55,37.9614727 C55.0000217,38.4731907 54.5888234,38.8899353 54.077151,38.8967693 L50.1922113,38.948657 L50.1922113,38.948657 C49.668305,38.9556544 49.2379226,38.5366169 49.2309252,38.0127106 C49.2308686,38.008474 49.2308404,38.004237 49.2308406,38 C49.2308634,37.4689728 49.6613524,37.0385023 50.1923796,37.0385023 L54.0769905,37.0385023 C54.5867393,37.0385023 54.9999784,37.4517239 55,37.9614727 Z M51.6698988,50.4666343 C51.4140585,50.909806 50.8495781,51.0651183 50.4030398,50.8152005 L47.0126395,48.9176667 L47.0126395,48.9176667 C46.5554246,48.6617735 46.3922212,48.0836851 46.6481145,47.6264703 C46.6501838,47.622773 46.6522778,47.6190896 46.6543965,47.6154203 C46.9199299,47.1555486 47.5079795,46.9979947 47.9678626,47.2635083 L51.3320343,49.2058138 C51.7734897,49.4606882 51.9247545,50.0251681 51.6698988,50.4666343 Z M42.5333657,59.6313714 C42.0902157,59.8872492 41.5237051,59.7395134 41.2619505,59.2998091 L39.2745446,55.9612965 C39.0065316,55.511079 39.1542374,54.9288381 39.6044549,54.6608251 C39.6080957,54.6586577 39.6117509,54.6565148 39.6154203,54.6543965 C40.0753148,54.3889026 40.6633577,54.5464818 40.9288713,55.0063649 L42.8711767,58.3705365 C43.1260511,58.8119919 42.9748103,59.3764783 42.5333657,59.6313714 Z M30.0385273,63 C29.5268093,63.0000217 29.1100647,62.5888234 29.1032307,62.077151 L29.051343,58.1922113 L29.051343,58.1922113 C29.0443456,57.668305 29.4633831,57.2379226 29.9872894,57.2309252 C29.991526,57.2308686 29.995763,57.2308404 30,57.2308406 C30.5310272,57.2308634 30.9614977,57.6613524 30.9614977,58.1923796 L30.9614977,62.0769905 C30.9614977,62.5867393 30.5482761,62.9999784 30.0385273,63 Z M17.5333657,59.6698988 C17.090194,59.4140585 16.9348817,58.8495781 17.1847995,58.4030398 L19.0823333,55.0126395 C19.3382265,54.5554246 19.9163149,54.3922212 20.3735297,54.6481145 C20.377227,54.6501838 20.3809104,54.6522778 20.3845797,54.6543965 C20.8444514,54.9199299 21.0020053,55.5079795 20.7364917,55.9678626 L18.7941862,59.3320343 C18.5393118,59.7734897 17.9748319,59.9247545 17.5333657,59.6698988 Z M8.36862857,50.5333657 C8.11275077,50.0902157 8.2604866,49.5237051 8.70019093,49.2619505 L12.0387035,47.2745446 C12.488921,47.0065316 13.0711619,47.1542374 13.3391749,47.6044549 C13.3413423,47.6080957 13.3434852,47.6117509 13.3456035,47.6154203 C13.6110974,48.0753148 13.4535182,48.6633577 12.9936351,48.9288713 L9.62946348,50.8711767 C9.18800806,51.1260511 8.62352169,50.9748103 8.36862857,50.5333657 Z M5,38.0385273 L5,38.0385273 C4.99997831,37.5268093 5.41117657,37.1100647 5.92284899,37.1032307 L9.80778868,37.051343 C10.331695,37.0443456 10.7620774,37.4633831 10.7690748,37.9872894 C10.7691314,37.991526 10.7691596,37.995763 10.7691594,38 C10.7691366,38.5310272 10.3386476,38.9614977 9.80762036,38.9614977 L5.92300953,38.9614977 C5.41326072,38.9614977 5.0000216,38.5482761 5,38.0385273 L5,38.0385273 Z M8.33010124,25.5333657 C8.58594148,25.090194 9.15042192,24.9348817 9.59696021,25.1847995 L12.9873605,27.0823333 L12.9873605,27.0823333 C13.4445754,27.3382265 13.6077788,27.9163149 13.3518855,28.3735297 C13.3498162,28.377227 13.3477222,28.3809104 13.3456035,28.3845797 L13.3456035,28.3845797 C13.0800701,28.8444514 12.4920205,29.0020053 12.0321374,28.7364917 L8.66796573,26.7941862 C8.22651031,26.5393118 8.07524554,25.9748319 8.33010124,25.5333657 Z M17.4666343,16.3686286 C17.9097843,16.1127508 18.4762949,16.2604866 18.7380495,16.7001909 L20.7254554,20.0387035 L20.7254554,20.0387035 C20.9934684,20.488921 20.8457626,21.0711619 20.3955451,21.3391749 C20.3919043,21.3413423 20.3882491,21.3434852 20.3845797,21.3456035 C19.9246852,21.6110974 19.3366423,21.4535182 19.0711287,20.9936351 L17.1288233,17.6294635 C16.8739489,17.1880081 17.0251897,16.6235217 17.4666343,16.3686286 Z"/>
    <circle cx="30" cy="38" r="8" stroke="url(#f)" stroke-width="2"/>
    <use fill="#CA8EE9" fill-opacity=".66" xlink:href="#g"/>
    <path stroke="url(#h)" stroke-width="2" d="M23 -1H37V4H23z"/>
    <path fill="url(#i)" fill-rule="nonzero" d="M4.13452907,7.73483096 C4.13176707,7.7348713 4.12900375,7.73491031 4.12623911,7.73494799 L21.2027869,21.3580836 C21.4253814,21.5356625 21.745851,21.5176944 21.9471997,21.3163456 C22.1485367,21.1150087 22.1664677,20.794545 21.9888482,20.5720041 L21.9888482,20.5720041 L8.5078065,3.68150206 C7.9614061,2.94220253 7.08351235,2.46279223 6.09364633,2.46279223 C4.43679208,2.46279223 3.09364633,3.80593798 3.09364633,5.46279223 C3.09364633,6.37086118 3.49709863,7.18469881 4.13452907,7.73483096 Z" transform="rotate(15 -105.525 112.525)"/>
    <path stroke="url(#j)" stroke-width="3" d="M1.5,0 L1.5,2" transform="translate(28.5 5)" stroke-linecap="square"/>
  </g>
</svg>
