<svg xmlns="http://www.w3.org/2000/svg" width="90" height="90">
  <defs>
    <linearGradient id="a" x1="11.1300818%" x2="86.0259458%" y1="87.3760784%" y2="12.3965307%">
      <stop stop-color="#77253E" offset="0%"/>
      <stop stop-color="#BF6D86" offset="100%"/>
    </linearGradient>
    <linearGradient id="b" x1="22.1097547%" y1="36.0884051%" y2="100%">
      <stop stop-color="#FFBACF" offset="0%"/>
      <stop stop-color="#FFB6CC" offset="100%"/>
    </linearGradient>
    <linearGradient id="c" x1="-136.932638%" x2="71.6855027%" y1="1698.70422%" y2="-1702.14705%">
      <stop stop-color="#77253E" offset="0%"/>
      <stop stop-color="#9A4861" offset="48.0399276%"/>
      <stop stop-color="#BF6D86" offset="100%"/>
    </linearGradient>
    <linearGradient id="d" x1="3.22399311%" x2="94.8745404%" y1="204.236404%" y2="-10.0286519%">
      <stop stop-color="#77253E" offset="0%"/>
      <stop stop-color="#BF6D86" offset="100%"/>
    </linearGradient>
  </defs>
  <g fill="none" fill-rule="evenodd">
    <path fill="#D8D8D8" stroke="url(#a)" stroke-width="1.83333333" d="M44,94 C19.699471,94 0,74.300529 0,50 C0,25.699471 19.699471,6 44,6 C68.300529,6 88,25.699471 88,50 C88,74.300529 68.300529,94 44,94 Z M44,93.9996363 C68.300529,93.9996363 88,74.300529 88,50 C88,25.699471 68.300529,6 44,6 C19.699471,6 0,25.699471 0,50 C0,74.300529 19.699471,93.9996363 44,93.9996363 Z" transform="translate(1 -5)"/>
    <path fill="url(#b)" stroke="url(#b)" stroke-width="2" d="M77.9245129,66.15453 C80.524095,61.3492215 82,55.8469688 82,50 C82,31.2223185 66.7776815,16 48,16 C29.2246385,16 14.0037615,31.2185573 14.0000007,49.9930402 C14.0037615,33.4276963 27.4337775,20 44,20 C60.5685425,20 74,33.4314575 74,50 C74,54.6184051 72.9563892,58.9930618 71.0921255,62.9010121 L77.9245129,66.15453 Z" transform="translate(1 -5)"/>
    <g transform="translate(11 15)">
      <circle cx="35" cy="29" r="7" fill="#D28099" stroke="#9E4C65" stroke-width="2"/>
      <path fill="url(#c)" d="M43.0004173,28.0008345 L69.0522242,28.0008345 L69.0522242,28.0008345 C69.5756663,28.0008345 70,28.4251682 70,28.9486103 L70,28.9486103 L70,28.9486103 C70,29.4726279 69.5762448,29.8979795 69.0522309,29.8999498 L43.0004102,29.9979074 L43.0004102,29.9979074 C42.4499725,29.9999771 42.0020767,29.555437 42.000007,29.0049993 C42.0000023,29.0037501 42,29.0025009 42,29.0012518 L42,29.0012518 L42,29.0012518 C42,28.4487366 42.4479021,28.0008345 43.0004173,28.0008345 Z"/>
      <path fill="url(#d)" d="M61.0004173,27.9628906 L67.0522242,27.9628906 L67.0522242,27.9628906 C67.5756663,27.9628906 68,28.3872243 68,28.9106664 C68,29.436114 67.5777083,29.8639998 67.0523063,29.8709142 L61.0003306,29.9505604 C60.4550861,29.957736 60.0072611,29.521545 60.0000855,28.9763005 C60.0000285,28.9719698 60,28.9676389 60,28.9633079 C60,28.4107927 60.4479021,27.9628906 61.0004173,27.9628906 L61.0004173,27.9628906 Z M6.99958275,29.9612216 L0.947775813,29.9612216 C0.424333685,29.9612216 0,29.5368879 0,29.0134458 C0,28.4879982 0.422291684,28.0601125 0.947693749,28.053198 L6.99966937,27.9735518 C7.54491389,27.9663762 7.9927389,28.4025672 7.99991451,28.9478118 C7.9999715,28.9521424 8,28.9564733 8,28.9608044 C8,29.5133195 7.55209794,29.9612216 6.99958275,29.9612216 L6.99958275,29.9612216 Z M19.6344887,7.01775113 L16.6085852,1.77673259 C16.3468641,1.3234184 16.5021811,0.743767811 16.9554952,0.482046747 C17.4105462,0.219322966 17.992252,0.371095411 18.2609411,0.822649706 L21.3559045,6.02399125 L21.3559045,6.02399125 C21.6347411,6.49259905 21.480901,7.09852239 21.0122932,7.37735892 C21.0085713,7.37957359 21.0048348,7.38176375 21.0010841,7.38392926 C20.5225919,7.66018685 19.9107463,7.49624332 19.6344887,7.01775113 L19.6344887,7.01775113 Z M46.6349059,6.02428984 L49.6608094,0.783271302 C49.9225305,0.329957122 50.5021811,0.174640213 50.9554952,0.436361277 L50.9554952,0.436361277 C51.4105462,0.699085058 51.5699603,1.27874327 51.3132474,1.73721204 L48.3562352,7.01819976 C48.0898272,7.49398318 47.4881621,7.66371549 47.0123787,7.39730749 C47.0085998,7.39519153 47.0048348,7.39305073 47.0010841,7.39088523 L47.0010841,7.39088523 C46.5225919,7.11462763 46.3586483,6.50278204 46.6349059,6.02428984 L46.6349059,6.02428984 Z"/>
    </g>
    <path stroke="url(#a)" stroke-width="2" d="M22.6451342,71.0705946 C17.2995113,65.653305 14,58.2119736 14,50 C14,33.4397923 27.4179475,20.0135141 43.974998,20.0000102 C60.5044394,20.0135142 73.9000015,33.4174069 73.9000015,49.9500008 C73.9000015,58.1481674 70.6060862,65.576999 65.269511,70.9852398 L65.3548658,71.0705946 C70.7004887,65.653305 74,58.2119736 74,50 C74,33.4314575 60.5685425,20 44,20 C43.9916652,20 43.9833312,20.0000034 43.974998,20.0000102 C43.9666695,20.0000034 43.9583356,20 43.9500008,20 C27.4090721,20 14,33.4090721 14,49.9500008 C14,58.1735999 17.3143839,65.6230831 22.6802149,71.0355138 L22.6451342,71.0705946 Z" transform="translate(1 -5)"/>
    <g stroke="#8B3952" stroke-width="2">
      <path d="M17.1,9 C19.5852814,9 21.6,6.98528137 21.6,4.5 C21.6,2.01471863 19.5852814,0 17.1,0 C15.8573593,0 14.7323593,0.503679656 13.9180195,1.31801948 C13.3751263,1.8609127 12.3357864,2.92157288 10.8,4.5 C12.3357864,6.07842712 13.3751263,7.1390873 13.9180195,7.68198052 C14.7323593,8.49632034 15.8573593,9 17.1,9 Z" transform="translate(35 69)"/>
      <path d="M6.3,9 C8.78528137,9 10.8,6.98528137 10.8,4.5 C10.8,2.01471863 8.78528137,0 6.3,0 C5.05735931,0 3.93235931,0.503679656 3.11801948,1.31801948 C2.57512627,1.8609127 1.53578644,2.92157288 0,4.5 C1.53578644,6.07842712 2.57512627,7.1390873 3.11801948,7.68198052 C3.93235931,8.49632034 5.05735931,9 6.3,9 Z" transform="matrix(-1 0 0 1 45.8 69)"/>
    </g>
  </g>
</svg>
