<svg xmlns="http://www.w3.org/2000/svg" width="67" height="67" xmlns:xlink="http://www.w3.org/1999/xlink">
  <defs>
    <linearGradient id="a" x1="11.5289016%" x2="86.5296617%" y1="82.8054018%" y2="11.8505867%">
      <stop stop-color="#C5768E" offset="0%"/>
      <stop stop-color="#D788A0" offset="100%"/>
    </linearGradient>
    <linearGradient id="b" x1="15.1236817%" x2="90.9768935%" y1="87.5999241%" y2="11.6862799%">
      <stop stop-color="#883951" offset="0%"/>
      <stop stop-color="#A95A72" offset="100%"/>
    </linearGradient>
    <linearGradient id="c" x1="17.2507039%" x2="90.6941976%" y1="85.4712072%" y2="11.9692011%">
      <stop stop-color="#984961" offset="0%"/>
      <stop stop-color="#984961" offset="100%"/>
    </linearGradient>
    <path id="d" d="M18.408191,36.5820942 C28.3493165,36.5820942 36.408191,28.5232197 36.408191,18.5820942 C36.408191,8.64096866 28.3493165,0.582094158 18.408191,0.582094158 C8.46706546,0.582094158 0.408190957,8.64096866 0.408190957,18.5820942 C0.408190957,28.5232197 8.46706546,36.5820942 18.408191,36.5820942 Z"/>
    <rect id="f" width="13.3478261" height="13.3478261" y=".65217391" rx="6.67391304"/>
    <linearGradient id="g" x1="-532.415896%" x2="249.782433%" y1="2967.91992%" y2="-1995.41016%">
      <stop stop-color="#480C80" offset="0%"/>
      <stop stop-color="#C380D4" offset="100%"/>
    </linearGradient>
    <rect id="h" width="13.3478261" height="13.3478261" y=".65217391" rx="6.67391304"/>
  </defs>
  <g fill="none" fill-rule="evenodd">
    <path fill="#FDBBCF" d="M64.6330566 33L75.7826087 33 75.7826087 34.6521739 64.6330566 34.6521739M64.6330566 37L75.7826087 37 75.7826087 38.6521739 64.6330566 38.6521739M53 15L75.7826087 15 75.7826087 16.6521739 53 16.6521739M57 19L75.7826087 19 75.7826087 20.6521739 57 20.6521739M60.2977099 51L75.7826087 51 75.7826087 52.6521739 60.2977099 52.6521739M57 55L75.7826087 55 75.7826087 56.6521739 57 56.6521739" transform="translate(-11 -10)"/>
    <g stroke-width="2">
      <path fill="url(#a)" stroke="url(#b)" d="M26.6502122,53.2608696 C12.0976262,53.2608696 0.300424366,41.4066764 0.300424366,26.7837881 C0.300424366,12.1608998 12.0976262,0.306706609 26.6502122,0.306706609 C41.2027982,0.306706609 53,12.1608998 53,26.7837881 C53,41.4066764 41.2027982,53.2608696 26.6502122,53.2608696 Z M26.6502122,49.6088583 C39.1955449,49.6088583 49.3655465,39.3897263 49.3655465,26.7837881 C49.3655465,14.1778499 39.1955449,3.95871785 26.6502122,3.95871785 C14.1048794,3.95871785 3.93487786,14.1778499 3.93487786,26.7837881 C3.93487786,39.3897263 14.1048794,49.6088583 26.6502122,49.6088583 Z" transform="rotate(-45 28.086 26.136)"/>
      <path fill="#CD7E96" fill-rule="nonzero" stroke="url(#c)" d="M23.6135146,60.8853253 L23.6135146,75.8040025 L23.6135146,75.8040025 C23.6135146,77.6679635 25.1245536,79.1790025 26.9885146,79.1790025 L26.9885146,79.1790025 L26.9885146,79.1790025 C28.8524756,79.1790025 30.3635146,77.6679635 30.3635146,75.8040025 L30.3635146,60.8853253 L26.9885146,56.0892967 L23.6135146,60.8853253 Z" transform="rotate(-45 28.086 26.136)"/>
    </g>
    <g transform="translate(9 9)">
      <mask id="e" fill="#fff">
        <use xlink:href="#d"/>
      </mask>
      <g mask="url(#e)">
        <g transform="translate(1.652 11.348)">
          <rect width="11.3478261" height="11.3478261" x="1" y="1.65217391" stroke="#94455D" stroke-width="2" rx="5.67391304"/>
          <path fill="#9D4E66" d="M15.3478261 2.65217391H40.1304348V4.30434782H15.3478261zM15.3478261 6.65217391H40.1304348V8.30434782H15.3478261zM15.3478261 10.6521739H26.9130435V12.30434781H15.3478261z"/>
        </g>
        <g transform="translate(1.652 -6.652)">
          <use fill="#FDBBCF" xlink:href="#f"/>
          <rect width="11.3478261" height="11.3478261" x="1" y="1.65217391" stroke="#FBBCCF" stroke-width="2" rx="5.67391304"/>
        </g>
        <path fill="url(#g)" d="M15.3478261 2.65217391H40.1304348V4.30434782H15.3478261z" opacity=".32999998" transform="translate(1.652 -6.652)"/>
        <path fill="#FDBBCF" d="M15.3478261 6.65217391H40.1304348V8.30434782H15.3478261zM15.3478261 10.6521739H26.9130435V12.30434781H15.3478261z" transform="translate(1.652 -6.652)"/>
        <g transform="translate(1.652 29.348)">
          <use fill="#FDBBCF" xlink:href="#h"/>
          <rect width="11.3478261" height="11.3478261" x="1" y="1.65217391" stroke="#FBBCCF" stroke-width="2" rx="5.67391304"/>
        </g>
        <path fill="#FDBBCF" d="M15.3478261 2.65217391H40.1304348V4.30434782H15.3478261zM15.3478261 6.65217391H40.1304348V8.30434782H15.3478261z" transform="translate(1.652 29.348)"/>
        <path fill="url(#g)" d="M15.3478261 10.6521739H26.9130435V12.30434781H15.3478261z" opacity=".32999998" transform="translate(1.652 29.348)"/>
      </g>
    </g>
  </g>
</svg>
