<svg xmlns="http://www.w3.org/2000/svg" width="73" height="83" xmlns:xlink="http://www.w3.org/1999/xlink">
  <defs>
    <linearGradient id="a" x1="119.855813%" x2="-22.0096224%" y1="135.98548%" y2="-33.9751555%">
      <stop stop-color="#480C80" offset="0%"/>
      <stop stop-color="#C380D4" offset="100%"/>
    </linearGradient>
    <linearGradient id="b" x1="-1345.95703%" x2="657.109375%" y1="1469.31641%" y2="-514.316406%">
      <stop stop-color="#480C80" offset="0%"/>
      <stop stop-color="#C380D4" offset="100%"/>
    </linearGradient>
    <linearGradient id="c" x1="-210.391305%" x2="305.200371%" y1="25.1951527%" y2="72.5134601%">
      <stop stop-color="#480C80" offset="0%"/>
      <stop stop-color="#C380D4" offset="100%"/>
    </linearGradient>
    <linearGradient id="d" x1="-680.463443%" x2="50%" y1="-899.268574%" y2="1849.56633%">
      <stop stop-color="#480C80" offset="0%"/>
      <stop stop-color="#C380D4" offset="100%"/>
    </linearGradient>
    <linearGradient id="e" x1="-680.416644%" x2="50%" y1="-886.927756%" y2="1850.33854%">
      <stop stop-color="#480C80" offset="0%"/>
      <stop stop-color="#C380D4" offset="100%"/>
    </linearGradient>
    <linearGradient id="f" x1="241.182917%" x2="-138.075421%" y1="-12.9104591%" y2="112.527071%">
      <stop stop-color="#480C80" offset="0%"/>
      <stop stop-color="#C380D4" offset="100%"/>
    </linearGradient>
    <linearGradient id="h" x1="1031.6721%" x2="-1690.21546%" y1="859.305577%" y2="138.256469%">
      <stop stop-color="#480C80" offset="0%"/>
      <stop stop-color="#C380D4" offset="100%"/>
    </linearGradient>
    <rect id="g" width="5" height="5" x="51.5525589" y="68.9544827" rx="2.5"/>
  </defs>
  <g fill="none" fill-rule="evenodd" transform="translate(-8 -2)">
    <path stroke="url(#a)" stroke-width="2" d="M32.1916713,27.6824958 C31.4518998,32.6655192 31.0405405,38.1880026 31.0405405,44 C31.0405405,66.09139 36.9836882,83.9996694 44.3149325,83.9996694 C51.6461767,83.9996694 57.5893244,66.09139 57.5893244,44 C57.5893244,21.90861 51.6461767,4 44.3149325,4 C41.8953735,4 39.6270093,5.9506481 37.6735851,9.3585272 C37.0778969,10.3977451 36.5114955,11.5724737 35.9790244,12.8687208" transform="rotate(60 44.315 44)"/>
    <rect width="7" height="7" x="60" y="18.5" stroke="url(#b)" stroke-width="2" rx="3.5"/>
    <path stroke="url(#c)" stroke-width="2" d="M32.4691295,27.8430169 C31.7293579,32.8260404 31.3179987,38.3485237 31.3179987,44.1605211 C31.3179987,66.2519111 37.2611464,84.1601905 44.5923906,84.1601905 C51.9236348,84.1601905 57.8667825,66.2519111 57.8667825,44.1605211 C57.8667825,22.0691311 51.9236348,4.16052113 44.5923906,4.16052113 C42.1728316,4.16052113 39.9044674,6.11116923 37.9510432,9.51904834 C37.355355,10.5582663 36.7889536,11.7329948 36.2564825,13.029242" transform="rotate(-60 44.592 44.16)"/>
    <rect width="5" height="5" x="13.4474411" y="36.0455173" fill="url(#d)" stroke="url(#e)" stroke-width="4" transform="rotate(-120 15.947 38.546)" rx="2.5"/>
    <path stroke="url(#f)" stroke-width="2" d="M32.4694158,27.5224706 C31.7296442,32.505494 31.318285,38.0279773 31.318285,43.8399748 C31.318285,65.9313648 37.2614327,83.8396442 44.5926769,83.8396442 C51.9239211,83.8396442 57.8670689,65.9313648 57.8670689,43.8399748 C57.8670689,21.7485848 51.9239211,3.83997478 44.5926769,3.83997478 C42.1731179,3.83997478 39.9047537,5.79062288 37.9513295,9.19850198 C37.3556413,10.2377199 36.7892399,11.4124485 36.2567688,12.7086956" transform="rotate(-180 44.593 43.84)"/>
    <g transform="rotate(120 54.053 71.454)">
      <use fill="#B377D2" fill-opacity=".66" xlink:href="#g"/>
      <rect width="7" height="7" x="50.5525589" y="67.9544827" stroke="url(#h)" stroke-width="2" rx="3.5"/>
    </g>
    <circle cx="44" cy="44" r="7" fill="#E7BDFD"/>
  </g>
</svg>
