<svg xmlns="http://www.w3.org/2000/svg" width="62" height="60">
  <defs>
    <linearGradient id="a" x1="0%" y1="93.2206003%" y2="0%">
      <stop stop-color="#BE82DD" offset="0%"/>
      <stop stop-color="#D094EF" offset="100%"/>
    </linearGradient>
    <linearGradient id="b" x1="-116.457648%" x2="145.458984%" y1="212.646484%" y2="-48.2319079%">
      <stop stop-color="#480C80" offset="0%"/>
      <stop stop-color="#C380D4" offset="100%"/>
    </linearGradient>
    <linearGradient id="c" x1="-455.716386%" x2="334.714827%" y1="2315.34892%" y2="-1458.51292%">
      <stop stop-color="#480C80" offset="0%"/>
      <stop stop-color="#C380D4" offset="100%"/>
    </linearGradient>
    <linearGradient id="d" x1="-3414.84375%" x2="1616.69922%" y1="3497.65625%" y2="-1452.34375%">
      <stop stop-color="#480C80" offset="0%"/>
      <stop stop-color="#C380D4" offset="100%"/>
    </linearGradient>
    <linearGradient id="e" x1="-2931.10352%" x2="2114.45312%" y1="3521.97266%" y2="-1423.58398%">
      <stop stop-color="#480C80" offset="0%"/>
      <stop stop-color="#C380D4" offset="100%"/>
    </linearGradient>
    <linearGradient id="f" x1="-66.0522461%" x2="242.208862%" y1="212.861894%" y2="-288.79597%">
      <stop stop-color="#480C80" offset="0%"/>
      <stop stop-color="#C380D4" offset="100%"/>
    </linearGradient>
    <linearGradient id="g" x1="-137.651367%" x2="362.172852%" y1="326.430664%" y2="-168.500977%">
      <stop stop-color="#480C80" offset="0%"/>
      <stop stop-color="#C380D4" offset="100%"/>
    </linearGradient>
  </defs>
  <g fill="none" fill-rule="evenodd" transform="translate(1)">
    <path fill="url(#a)" d="M23,16.5143242 L23,2 L23,2 C23,0.8954305 23.8954305,2.02906125e-16 25,0 L25,0 L59,0 C60.1045695,-2.02906125e-16 61,0.8954305 61,2 L61,28 C61,29.1045695 60.1045695,30 59,30 L37,30 L29,38 L29,30 L25.8005808,30 C26.5674427,28.4998644 27,26.8004468 27,25 C27,21.5841261 25.4430067,18.5319075 23,16.5143242 Z M34.9289322,20.0710678 C36.791544,21.9336796 39.3126085,23 42,23 C44.6873915,23 47.208456,21.9336796 49.0710678,20.0710678 C49.4615921,19.6805435 49.4615921,19.0473785 49.0710678,18.6568542 C48.6805435,18.26633 48.0473785,18.26633 47.6568542,18.6568542 C46.165597,20.1481115 44.1515064,21 42,21 C39.8484936,21 37.834403,20.1481115 36.3431458,18.6568542 C35.9526215,18.26633 35.3194565,18.26633 34.9289322,18.6568542 C34.5384079,19.0473785 34.5384079,19.6805435 34.9289322,20.0710678 Z M47,13 C48.1045695,13 49,12.1045695 49,11 C49,9.8954305 48.1045695,9 47,9 C45.8954305,9 45,9.8954305 45,11 C45,12.1045695 45.8954305,13 47,13 Z M37,13 C38.1045695,13 39,12.1045695 39,11 C39,9.8954305 38.1045695,9 37,9 C35.8954305,9 35,9.8954305 35,11 C35,12.1045695 35.8954305,13 37,13 Z"/>
    <path fill="url(#b)" fill-rule="nonzero" d="M25.8005808,30 L29,30 L29,38 L37,30 L59,30 C60.1045695,30 61,29.1045695 61,28 L61,2 C61,0.8954305 60.1045695,-2.02906125e-16 59,0 L25,0 C23.8954305,2.02906125e-16 23,0.8954305 23,2 L23,16.5143242 C23.7588599,17.1410368 24.43223,17.8675795 25,18.6738417 L25,2 L59,2 L59,28 L36.1715729,28 L31,33.1715729 L31,28 L26.585935,28 C26.388719,28.69728 26.1244668,29.3664141 25.8005808,30 Z"/>
    <g fill-rule="nonzero">
      <path fill="url(#c)" d="M1.51471863,14.4852814 C0.343145751,13.3137085 0.343145751,11.4142136 1.51471863,10.2426407 C2.6862915,9.07106781 4.58578644,9.07106781 5.75735931,10.2426407 C6.87726199,11.3625434 8.38437876,12 10,12 C11.6156212,12 13.122738,11.3625434 14.2426407,10.2426407 C15.4142136,9.07106781 17.3137085,9.07106781 18.4852814,10.2426407 C19.6568542,11.4142136 19.6568542,13.3137085 18.4852814,14.4852814 C16.251315,16.7192478 13.2232766,18 10,18 C6.77672341,18 3.74868501,16.7192478 1.51471863,14.4852814 Z M2.92893219,13.0710678 C4.791544,14.9336796 7.31260853,16 10,16 C12.6873915,16 15.208456,14.9336796 17.0710678,13.0710678 C17.4615921,12.6805435 17.4615921,12.0473785 17.0710678,11.6568542 C16.6805435,11.26633 16.0473785,11.26633 15.6568542,11.6568542 C14.165597,13.1481115 12.1515064,14 10,14 C7.84849364,14 5.83440299,13.1481115 4.34314575,11.6568542 C3.95262146,11.26633 3.31945648,11.26633 2.92893219,11.6568542 C2.5384079,12.0473785 2.5384079,12.6805435 2.92893219,13.0710678 Z" transform="translate(32 7)"/>
      <path fill="url(#d)" d="M15,8 C12.790861,8 11,6.209139 11,4 C11,1.790861 12.790861,0 15,0 C17.209139,0 19,1.790861 19,4 C19,6.209139 17.209139,8 15,8 Z M15,2 C13.8954305,2 13,2.8954305 13,4 C13,5.1045695 13.8954305,6 15,6 C16.1045695,6 17,5.1045695 17,4 C17,2.8954305 16.1045695,2 15,2 Z" transform="translate(32 7)"/>
      <path fill="url(#e)" d="M5,8 C2.790861,8 1,6.209139 1,4 C1,1.790861 2.790861,0 5,0 C7.209139,0 9,1.790861 9,4 C9,6.209139 7.209139,8 5,8 Z M5,2 C3.8954305,2 3,2.8954305 3,4 C3,5.1045695 3.8954305,6 5,6 C6.1045695,6 7,5.1045695 7,4 C7,2.8954305 6.1045695,2 5,2 Z" transform="translate(32 7)"/>
    </g>
    <path stroke="url(#f)" stroke-width="2" d="M32,55 C32,46.163444 24.836556,39 16,39 C7.163444,39 -7.28306304e-14,46.163444 -7.28306304e-14,55 C-5.15143483e-14,55.3968099 -2.96059473e-15,56.7197266 7.28306304e-14,58.96875 L32,58.96875 C32,56.7877604 32,55.4648438 32,55 Z"/>
    <circle cx="16" cy="25" r="10" stroke="url(#g)" stroke-width="2"/>
  </g>
</svg>
